
          <svg data-logo="logo" xmlns="http://www.w3.org/2000/svg" viewBox="0 0 193 43">
            <g id="logogram" transform="translate(0, 1) rotate(0)"><path fill-rule="evenodd" clip-rule="evenodd" d="M7.57066 0.900612C11.4827 2.52061 15.3667 6.77761 16.9877 11.0976C17.1207 11.0676 17.2547 11.0396 17.3887 11.0126C17.4757 10.3196 17.8617 9.67461 18.4817 9.27861C18.8697 9.03161 19.3177 8.90061 19.7777 8.90061C20.2707 8.90061 20.7537 9.05461 21.1547 9.33361C21.4297 9.22661 21.7247 9.17061 22.0257 9.17061C22.2047 9.17061 22.3837 9.19061 22.5577 9.22961C23.3597 9.41161 24.1577 9.78661 24.9447 10.3506C26.6557 6.40661 30.4457 2.39461 34.0537 0.900612C35.3707 0.355612 36.3637 0.11261 37.2737 0.11261C38.4907 0.11261 41.3457 0.609614 41.5637 5.21561C41.7867 9.91861 37.9187 15.9126 35.4257 18.6106C37.1417 21.2036 38.1327 24.0536 38.2377 26.7286C38.2477 26.9736 38.2327 27.2966 38.2047 27.7996C39.1417 28.4956 39.6277 29.4666 39.5867 30.5956C39.5547 31.5046 39.0907 32.2956 38.3557 32.7596C38.1227 33.5756 37.6857 34.2286 37.4727 34.5466C34.0247 39.6976 23.6627 40.0986 20.5687 40.0986C16.9807 40.0986 13.4837 39.6496 10.7227 38.8336C7.15867 37.7816 4.80566 36.1606 3.73066 34.0166C3.50666 33.5696 3.34866 33.1516 3.25366 32.7566C3.03066 32.6076 2.83266 32.4236 2.66566 32.2096C2.59766 32.1236 2.53466 32.0306 2.47866 31.9326C2.04266 31.1796 1.94465 30.3196 2.20165 29.5116C2.41465 28.8416 2.85366 28.2636 3.51066 27.7846C3.47066 27.0236 3.45367 26.5116 3.48567 26.1536C3.73867 23.3886 4.63366 20.7636 6.08566 18.5036C5.40766 17.7006 4.25066 16.2266 3.14266 14.4016C0.881664 10.6786 -0.121345 7.27861 0.158655 4.29461C0.449655 1.20161 2.49667 0.0996094 4.31567 0.0996094C5.47767 0.0996094 6.61266 0.503612 7.57066 0.900612ZM35.7397 29.2506C35.7077 29.1916 35.7437 28.5826 35.7797 27.9786C35.8077 27.4926 35.8367 27.0106 35.8297 26.8226C35.5907 20.7166 29.6627 14.2666 25.3527 14.0076C25.3177 14.0056 25.2127 13.8906 25.0497 13.7106C24.5247 13.1326 23.3967 11.8896 22.0257 11.5796C22.2347 12.1896 22.1577 12.8206 21.8457 13.4686L19.7777 11.3106C19.7777 11.3106 21.1367 14.7906 20.1377 16.0756L19.6877 13.1086C12.3277 13.7936 6.57266 18.8486 5.88366 26.3726C5.85966 26.6396 5.90066 27.4006 5.93666 28.0606C5.96766 28.6156 5.99366 29.0996 5.97366 29.1606C5.96466 29.1876 5.85966 29.2356 5.70866 29.3046C5.19566 29.5406 4.15366 30.0186 4.56266 30.7266C4.59766 30.7706 4.65566 30.7886 4.73066 30.7886C4.86066 30.7886 5.04166 30.7346 5.23666 30.6776C5.46266 30.6106 5.70867 30.5376 5.91467 30.5376C6.04467 30.5376 6.15966 30.5666 6.24366 30.6446L6.18366 30.7216C5.51066 31.5776 5.32166 31.8176 5.88366 32.9376C7.47766 36.1156 13.9937 37.6896 20.5677 37.6896C26.9937 37.6896 33.4757 36.1856 35.4697 33.2066C35.7907 32.7266 36.3127 31.8926 36.0087 31.3186C35.9897 31.2826 35.9217 31.2286 35.8357 31.1606C35.5957 30.9696 35.2217 30.6726 35.4247 30.3746C35.4707 30.3906 35.5357 30.4166 35.6127 30.4466L35.6147 30.4476C35.9327 30.5736 36.4637 30.7846 36.8177 30.7846C37.0247 30.7846 37.1707 30.7126 37.1777 30.5096C37.2057 29.7456 36.3327 29.4606 35.9327 29.3296C35.8237 29.2936 35.7497 29.2696 35.7397 29.2506ZM33.4187 17.3516C34.0717 16.6246 39.6617 10.1326 39.1347 4.52061C38.8837 1.85661 36.9327 2.34361 35.0427 3.12661C31.3977 4.63561 27.7917 8.97461 26.6827 12.7756C27.3927 13.0316 28.0757 13.3316 28.7287 13.6706C29.0157 13.8186 29.2967 13.9736 29.5717 14.1376C29.8897 10.9126 31.4377 7.97362 33.6497 5.64462C33.7927 5.53962 33.9357 5.43261 34.0797 5.32561C34.9257 4.69161 35.7797 4.05261 36.8407 3.84661C37.7057 7.76361 36.0317 12.0176 33.7387 15.1766C33.6617 15.2836 33.3887 15.5676 33.0947 15.8716L33.0297 15.9386L33.0267 15.9416C32.8627 16.1116 32.6957 16.2846 32.5557 16.4336C32.8557 16.7276 33.1437 17.0336 33.4187 17.3516ZM33.4287 14.9516C34.6547 13.2616 37.3577 8.90761 36.5437 4.31661C35.7337 4.56761 35.0387 5.08661 34.3097 5.63261L34.3057 5.63661C34.0387 5.83561 33.7867 6.05561 33.5647 6.30361C31.4517 8.67261 30.2027 11.4156 29.9427 14.2666L29.9337 14.3616C30.4797 14.7066 31.0017 15.0806 31.4957 15.4826C31.7647 15.7036 32.0227 15.9346 32.2747 16.1716L32.2797 16.1656C32.3897 16.0496 32.5137 15.9206 32.6407 15.7886L32.7767 15.6476L32.7777 15.6466C33.0437 15.3716 33.3637 15.0416 33.4287 14.9516ZM9.41766 16.1716C9.66466 15.9406 9.91667 15.7146 10.1777 15.4976C10.6777 15.0896 11.2057 14.7106 11.7587 14.3616L11.7497 14.2666C11.4907 11.4156 10.2407 8.67261 8.12766 6.30361C7.90666 6.05561 7.65367 5.83561 7.38667 5.63661L7.38265 5.63361C6.65365 5.08661 5.95866 4.56761 5.14866 4.31661C4.33566 8.90861 7.03766 13.2616 8.26466 14.9516C8.32966 15.0416 8.64866 15.3726 8.91566 15.6476L8.93966 15.6726C9.10666 15.8446 9.27065 16.0156 9.41265 16.1666L9.41766 16.1716ZM6.82766 13.4376C6.84966 13.4766 6.87366 13.5166 6.89666 13.5556L6.93566 13.6206L6.89565 13.5536C6.87265 13.5146 6.84966 13.4766 6.82766 13.4376ZM7.35766 14.3016L7.31365 14.2326L7.34666 14.2856C7.37966 14.3376 7.41266 14.3886 7.44666 14.4396C7.41666 14.3946 7.38766 14.3476 7.35766 14.3016ZM28.9507 24.1696C32.6277 23.5666 33.6447 30.0026 29.5797 30.2846C25.5377 30.5646 26.1507 24.6276 28.9507 24.1696ZM11.7747 24.1696C15.8177 23.5436 16.5177 31.1016 11.7747 30.1946C8.51167 29.5706 9.25967 24.5586 11.7747 24.1696ZM23.0157 14.5476C23.2337 14.6246 22.5847 15.7416 22.4307 15.8516L23.8247 15.3566C23.7707 16.1366 20.8017 17.0156 20.6327 16.6606C21.5997 16.1896 22.3397 15.3696 23.0157 14.5476ZM21.4237 30.6946C21.1757 30.7796 20.9867 30.8436 21.0817 31.3186C21.2267 32.0406 22.6117 32.0936 23.0607 31.4986C23.0957 31.4516 23.1107 31.3476 23.1267 31.2336C23.1667 30.9526 23.2147 30.6166 23.5997 30.9586C23.7557 31.4736 23.3497 31.8076 23.0527 32.0516C22.9337 32.1496 22.8317 32.2326 22.7907 32.3076C22.7167 32.4426 22.6767 32.6606 22.6337 32.8996C22.5747 33.2226 22.5087 33.5846 22.3407 33.8366C21.7387 34.7406 20.2777 34.8246 19.5537 34.0166C19.2637 33.6936 19.1987 33.2766 19.1427 32.9226C19.1107 32.7166 19.0817 32.5306 19.0137 32.3976C18.9837 32.3386 18.8787 32.2356 18.7497 32.1076C18.3347 31.6996 17.6697 31.0456 18.4297 30.8236C18.6997 32.2376 20.5757 32.3326 20.7227 30.8686C19.9977 30.6116 19.5097 30.2856 19.6437 29.4296C19.7437 29.1186 20.2887 29.0506 20.4667 29.0286C20.4787 29.0276 20.4887 29.0256 20.4977 29.0246C21.3947 28.9056 22.8497 29.3256 21.8917 30.4196C21.7477 30.5836 21.5747 30.6426 21.4237 30.6946Z" fill="#20185B"/><path fill-rule="evenodd" clip-rule="evenodd" d="M35.9327 29.3296C36.3327 29.4606 37.2057 29.7456 37.1777 30.5096C37.1707 30.7126 37.0247 30.7846 36.8177 30.7846C36.4637 30.7846 35.9327 30.5736 35.6147 30.4476C35.5367 30.4166 35.4707 30.3906 35.4247 30.3746C35.2217 30.6726 35.5957 30.9696 35.8357 31.1606C35.9217 31.2286 35.9897 31.2826 36.0087 31.3186C36.3127 31.8926 35.7907 32.7266 35.4697 33.2076C33.4757 36.1856 26.9937 37.6896 20.5677 37.6896C13.9937 37.6896 7.47767 36.1156 5.88367 32.9376C5.32167 31.8176 5.51068 31.5776 6.18368 30.7216L6.24367 30.6446C6.15967 30.5666 6.04468 30.5376 5.91468 30.5376C5.70868 30.5376 5.46367 30.6106 5.23667 30.6776C5.04167 30.7356 4.86067 30.7886 4.73067 30.7886C4.65567 30.7886 4.59767 30.7706 4.56267 30.7266C4.15367 30.0186 5.19567 29.5406 5.70867 29.3046C5.85967 29.2356 5.96467 29.1876 5.97367 29.1606C5.99367 29.0996 5.96767 28.6156 5.93667 28.0606C5.90067 27.4006 5.85967 26.6396 5.88367 26.3726C6.57267 18.8486 12.3277 13.7936 19.6877 13.1086L20.1377 16.0766C21.1367 14.7906 19.7777 11.3106 19.7777 11.3106L21.8457 13.4686C22.1577 12.8206 22.2347 12.1896 22.0257 11.5796C23.3967 11.8896 24.5247 13.1326 25.0497 13.7106C25.2127 13.8906 25.3177 14.0056 25.3527 14.0076C29.6627 14.2666 35.5907 20.7166 35.8297 26.8226C35.8367 27.0106 35.8077 27.4926 35.7797 27.9796C35.7437 28.5826 35.7077 29.1916 35.7397 29.2506C35.7497 29.2696 35.8237 29.2936 35.9327 29.3296ZM28.9507 24.1696C32.6277 23.5666 33.6447 30.0026 29.5797 30.2846C25.5377 30.5646 26.1507 24.6276 28.9507 24.1696ZM11.7747 24.1696C15.8177 23.5436 16.5177 31.1016 11.7747 30.1946C8.51168 29.5706 9.25968 24.5586 11.7747 24.1696ZM20.4977 29.0256C21.3947 28.9066 22.8497 29.3256 21.8917 30.4196C21.7477 30.5836 21.5747 30.6426 21.4237 30.6946C21.1757 30.7796 20.9867 30.8436 21.0817 31.3186C21.2267 32.0406 22.6117 32.0936 23.0607 31.4986C23.0957 31.4516 23.1107 31.3476 23.1267 31.2336C23.1667 30.9526 23.2147 30.6166 23.5997 30.9586C23.7557 31.4736 23.3497 31.8076 23.0527 32.0516C22.9337 32.1496 22.8317 32.2326 22.7907 32.3076C22.7167 32.4426 22.6767 32.6606 22.6337 32.8996C22.5747 33.2226 22.5087 33.5846 22.3407 33.8366C21.7387 34.7406 20.2777 34.8246 19.5537 34.0166C19.2637 33.6936 19.1987 33.2766 19.1427 32.9226C19.1107 32.7166 19.0817 32.5306 19.0137 32.3976C18.9837 32.3386 18.8787 32.2356 18.7497 32.1076C18.3347 31.6996 17.6697 31.0456 18.4297 30.8236C18.6997 32.2376 20.5757 32.3326 20.7227 30.8686C19.9977 30.6116 19.5097 30.2856 19.6437 29.4296C19.7437 29.1186 20.2887 29.0506 20.4667 29.0286L20.4977 29.0256ZM22.4307 15.8516C22.5847 15.7416 23.2337 14.6246 23.0157 14.5476C22.3397 15.3696 21.5997 16.1896 20.6327 16.6606C20.8017 17.0156 23.7707 16.1366 23.8247 15.3566L22.4307 15.8516 M9.13668 16.4336C8.72568 15.9976 8.07966 15.3506 7.95366 15.1766C5.66066 12.0186 3.98667 7.76364 4.85067 3.84664C6.09167 4.08764 7.04967 4.92064 8.04367 5.64464C10.8817 7.71264 12.4227 10.1406 12.8997 13.6936L12.9637 13.6706C13.6167 13.3316 14.2997 13.0316 15.0087 12.7756C13.9007 8.97464 10.2947 4.63564 6.64968 3.12664C4.75968 2.34364 2.80867 1.85664 2.55767 4.52064C2.02967 10.1326 7.62067 16.6246 8.27367 17.3516C8.54867 17.0336 8.83568 16.7276 9.13668 16.4336 M32.5557 16.4336C32.9657 15.9976 33.6127 15.3506 33.7387 15.1766C36.0317 12.0186 37.7057 7.76364 36.8407 3.84664C35.5997 4.08764 34.6417 4.92064 33.6487 5.64464C30.8107 7.71264 29.2687 10.1406 28.7927 13.6936L28.7277 13.6706C28.0747 13.3316 27.3927 13.0316 26.6827 12.7756C27.7917 8.97464 31.3977 4.63564 35.0427 3.12664C36.9327 2.34364 38.8837 1.85664 39.1347 4.52064C39.6617 10.1326 34.0717 16.6246 33.4187 17.3516C33.1437 17.0336 32.8557 16.7276 32.5557 16.4336Z" fill="#FFC0C0"/><path d="M29.3997 25.3386C30.8107 25.0266 30.9327 27.2636 29.9397 27.4966C28.4967 27.8346 28.3977 25.5596 29.3997 25.3386ZM11.6857 25.3386C13.3347 24.9346 13.2557 27.9546 11.6857 27.4966C10.9397 27.2786 10.8797 25.5356 11.6857 25.3386Z" fill="#ffffff"/><path d="M22.1607 33.4326C21.3397 33.1576 20.3867 32.9646 19.6427 33.5226C19.4547 33.1566 19.4037 32.8916 19.3727 32.4876C19.8037 32.6866 20.7637 31.9036 20.9017 31.9036C21.0237 31.9036 21.0987 32.1916 21.5757 32.3536C22.0907 32.5266 22.7507 32.0606 22.1607 33.4326Z" fill="#CC3A4D"/><path d="M22.1617 33.4326C21.6897 34.5286 20.1887 34.5806 19.6437 33.5226C20.3877 32.9646 21.3407 33.1576 22.1617 33.4326 M8.93967 15.6726C9.10667 15.8446 9.27067 16.0156 9.41267 16.1666C10.1297 15.4976 10.9147 14.8946 11.7587 14.3616L11.7497 14.2666C11.4907 11.4156 10.2407 8.67259 8.12768 6.30359C7.90668 6.05559 7.65368 5.83559 7.38668 5.63659C7.38668 5.63659 7.38467 5.63459 7.38267 5.63359C6.65367 5.08659 5.95867 4.56759 5.14867 4.31659C4.33567 8.90859 7.03767 13.2616 8.26467 14.9516C8.33167 15.0446 8.66867 15.3926 8.93967 15.6726Z" fill="#EA767E"/><path d="M32.7537 15.6726C32.5857 15.8446 32.4217 16.0156 32.2807 16.1666C31.5637 15.4976 30.7777 14.8946 29.9347 14.3616L29.9427 14.2666C30.2027 11.4156 31.4517 8.67259 33.5647 6.30359C33.7867 6.05559 34.0387 5.83559 34.3057 5.63659C34.3067 5.63459 34.3087 5.63459 34.3097 5.63259C35.0397 5.08659 35.7337 4.56759 36.5437 4.31659C37.3577 8.90759 34.6547 13.2616 33.4287 14.9516C33.3617 15.0446 33.0237 15.3926 32.7537 15.6726Z" fill="#EA767E"/><path d="M21.8467 13.4686C22.1587 12.8206 22.2347 12.1896 22.0257 11.5796C22.0257 11.5796 22.8407 12.6056 22.1397 13.7186C22.0167 13.6246 21.8467 13.4686 21.8467 13.4686ZM19.7777 11.3106C19.7777 11.3106 22.0077 14.3506 20.1377 16.0766C21.1367 14.7906 19.7777 11.3106 19.7777 11.3106ZM9.63966 17.8506L9.65067 17.8126C12.1487 15.1536 15.6787 13.4816 19.6877 13.1086L19.8157 13.9586C14.1097 13.9946 9.63966 17.8506 9.63966 17.8506ZM28.7287 13.6706L28.7937 13.6936C29.2697 10.1406 30.8107 7.71259 33.6497 5.64459C31.4377 7.97359 29.8897 10.9126 29.5717 14.1376C29.2967 13.9736 29.0157 13.8186 28.7287 13.6706ZM12.1207 14.1376C11.8027 10.9126 10.2547 7.97359 8.04266 5.64459C10.8807 7.71259 12.4227 10.1406 12.8987 13.6936L12.9627 13.6706C12.6767 13.8186 12.3947 13.9736 12.1207 14.1376ZM31.9337 18.0126C30.1567 16.3316 25.2067 13.9986 25.3537 14.0076C27.4447 14.1326 29.9157 15.7186 31.9337 18.0126Z" fill="#FFDEDE"/><path d="M32.7527 15.6726C32.5837 15.8466 32.4177 16.0196 32.2747 16.1716C31.9737 15.8896 31.6637 15.6146 31.3387 15.3556C31.6657 12.4486 33.3467 7.65459 36.5597 7.74359C36.0717 10.9556 34.3407 13.6926 33.4277 14.9516C33.3607 15.0446 33.0237 15.3926 32.7527 15.6726ZM8.26466 14.9516C7.35166 13.6926 5.62066 10.9556 5.13266 7.74359C8.34566 7.65459 10.0267 12.4486 10.3537 15.3556C10.0287 15.6146 9.71866 15.8896 9.41766 16.1716C9.27466 16.0196 9.10867 15.8466 8.93967 15.6726C8.66867 15.3926 8.33266 15.0446 8.26466 14.9516ZM10.8757 30.6446C14.1017 30.4646 14.5907 33.7306 11.6847 34.1516C7.61766 34.7406 7.45767 30.8356 10.8757 30.6446ZM30.1197 30.6446C33.6797 30.3406 34.3627 34.0386 31.0187 34.2416C27.7057 34.4436 26.8567 30.9236 30.1197 30.6446ZM35.9937 32.2376C35.8637 32.5986 35.6407 32.9526 35.4697 33.2066C33.4757 36.1856 26.9947 37.6896 20.5687 37.6896C13.9947 37.6896 7.47766 36.1156 5.88466 32.9376C5.67166 32.5126 5.56667 32.2146 5.55467 31.9616V31.9036C5.55467 31.9036 7.60766 37.2616 20.8787 37.1346C25.8527 37.0916 32.6507 36.2666 35.9937 32.2376Z" fill="#F6A7A8"/></g>
            <g id="logotype" transform="translate(48, 1.5)"><path fill="#111111" d="M25.24 26.22L27.84 30.49Q26.13 31.96 24.01 32.74Q21.89 33.53 19.62 33.53L19.62 33.53Q17.88 33.53 16.26 33.08Q14.65 32.62 13.24 31.80Q11.83 30.97 10.67 29.80Q9.50 28.64 8.67 27.23Q7.85 25.82 7.39 24.21Q6.94 22.59 6.94 20.85L6.94 20.85Q6.94 19.11 7.39 17.48Q7.85 15.86 8.67 14.45Q9.50 13.04 10.67 11.88Q11.83 10.71 13.24 9.89Q14.65 9.06 16.26 8.60Q17.88 8.15 19.62 8.15L19.62 8.15Q21.89 8.15 24.01 8.93Q26.13 9.71 27.84 11.19L27.84 11.19L25.24 15.47Q24.17 14.30 22.70 13.68Q21.23 13.06 19.62 13.06L19.62 13.06Q18.00 13.06 16.58 13.67Q15.16 14.29 14.10 15.34Q13.04 16.39 12.43 17.82Q11.81 19.24 11.81 20.85L11.81 20.85Q11.81 22.46 12.43 23.87Q13.04 25.28 14.10 26.33Q15.16 27.39 16.58 28.01Q18.00 28.63 19.62 28.63L19.62 28.63Q21.23 28.63 22.70 28.00Q24.17 27.38 25.24 26.22L25.24 26.22ZM44.74 33L43.20 30.86Q42.64 31.38 42.00 31.83Q41.36 32.28 40.66 32.62Q39.96 32.95 39.21 33.15Q38.47 33.34 37.70 33.34L37.70 33.34Q36.01 33.34 34.52 32.74Q33.04 32.15 31.92 31.04Q30.80 29.94 30.16 28.36Q29.52 26.78 29.52 24.81L29.52 24.81L29.52 14.70L34.16 14.70L34.16 24.81Q34.16 25.74 34.45 26.46Q34.73 27.19 35.21 27.69Q35.69 28.18 36.33 28.44Q36.97 28.69 37.70 28.69L37.70 28.69Q38.42 28.69 39.06 28.36Q39.70 28.03 40.18 27.48Q40.66 26.93 40.93 26.24Q41.21 25.55 41.21 24.81L41.21 24.81L41.21 14.70L45.87 14.70L45.87 33L44.74 33ZM54.13 31.77L54.13 39.97L49.43 39.97L49.43 14.70L50.55 14.70L52.42 16.90Q53.05 16.30 53.80 15.77Q54.55 15.24 55.36 14.86Q56.18 14.47 57.05 14.25Q57.92 14.03 58.81 14.03L58.81 14.03Q60.74 14.03 62.44 14.72Q64.14 15.41 65.41 16.68Q66.69 17.94 67.42 19.73Q68.16 21.52 68.16 23.69L68.16 23.69Q68.16 25.94 67.42 27.74Q66.69 29.55 65.41 30.80Q64.14 32.06 62.44 32.73Q60.74 33.39 58.81 33.39L58.81 33.39Q58.19 33.39 57.59 33.26Q56.98 33.12 56.39 32.89Q55.80 32.66 55.23 32.37Q54.65 32.08 54.13 31.77L54.13 31.77ZM63.47 23.69L63.47 23.69Q63.47 22.52 63.11 21.60Q62.74 20.68 62.11 20.04Q61.47 19.40 60.62 19.05Q59.76 18.71 58.81 18.71L58.81 18.71Q57.85 18.71 57.00 19.05Q56.16 19.40 55.53 20.04Q54.89 20.68 54.53 21.60Q54.16 22.52 54.16 23.69L54.16 23.69Q54.16 24.80 54.53 25.72Q54.89 26.64 55.53 27.29Q56.16 27.94 57.00 28.30Q57.85 28.66 58.81 28.66L58.81 28.66Q59.76 28.66 60.62 28.30Q61.47 27.94 62.11 27.29Q62.74 26.64 63.11 25.72Q63.47 24.80 63.47 23.69ZM86.73 18.34L86.73 18.34L83.31 21.77Q83.06 21.05 82.61 20.48Q82.17 19.91 81.61 19.52Q81.06 19.12 80.41 18.92Q79.76 18.71 79.08 18.71L79.08 18.71Q78.12 18.71 77.27 19.11Q76.43 19.50 75.80 20.21Q75.18 20.92 74.82 21.89Q74.46 22.87 74.46 24.04L74.46 24.04Q74.46 25.00 74.82 25.84Q75.18 26.68 75.80 27.31Q76.43 27.94 77.27 28.30Q78.12 28.66 79.08 28.66L79.08 28.66Q79.76 28.66 80.39 28.47Q81.02 28.28 81.58 27.93Q82.14 27.58 82.57 27.08Q83.01 26.57 83.28 25.96L83.28 25.96L86.70 29.39Q86.05 30.32 85.20 31.05Q84.36 31.79 83.37 32.30Q82.39 32.81 81.31 33.08Q80.22 33.34 79.08 33.34L79.08 33.34Q77.15 33.34 75.44 32.62Q73.74 31.89 72.47 30.62Q71.20 29.36 70.46 27.67Q69.73 25.98 69.73 24.04L69.73 24.04Q69.73 21.94 70.46 20.11Q71.20 18.29 72.47 16.93Q73.74 15.57 75.44 14.78Q77.15 14.00 79.08 14.00L79.08 14.00Q80.22 14.00 81.32 14.29Q82.43 14.58 83.43 15.13Q84.43 15.69 85.27 16.49Q86.12 17.29 86.73 18.34ZM106.45 14.73L106.45 33L105.33 33L103.51 30.49Q102.85 31.09 102.10 31.61Q101.36 32.13 100.54 32.51Q99.72 32.90 98.86 33.12Q97.99 33.34 97.11 33.34L97.11 33.34Q95.17 33.34 93.47 32.69Q91.77 32.04 90.50 30.80Q89.23 29.56 88.49 27.77Q87.76 25.98 87.76 23.69L87.76 23.69Q87.76 21.55 88.49 19.76Q89.23 17.98 90.50 16.70Q91.77 15.41 93.47 14.71Q95.17 14.00 97.11 14.00L97.11 14.00Q97.99 14.00 98.87 14.22Q99.74 14.44 100.56 14.83Q101.38 15.23 102.12 15.76Q102.87 16.29 103.51 16.90L103.51 16.90L105.33 14.73L106.45 14.73ZM101.75 23.69L101.75 23.69Q101.75 22.73 101.39 21.83Q101.02 20.93 100.39 20.24Q99.75 19.55 98.91 19.13Q98.06 18.71 97.11 18.71L97.11 18.71Q96.15 18.71 95.30 19.04Q94.46 19.36 93.83 19.99Q93.21 20.63 92.85 21.56Q92.49 22.49 92.49 23.69L92.49 23.69Q92.49 24.88 92.85 25.81Q93.21 26.75 93.83 27.38Q94.46 28.01 95.30 28.33Q96.15 28.66 97.11 28.66L97.11 28.66Q98.06 28.66 98.91 28.24Q99.75 27.82 100.39 27.13Q101.02 26.44 101.39 25.54Q101.75 24.64 101.75 23.69ZM114.71 30.66L114.71 33L110.01 33L110.01 7.42L114.71 7.42L114.71 23.55L121.66 14.73L127.03 14.73L120.96 22.35L127.03 33L121.66 33L117.96 26.35L114.71 30.66ZM144.34 17.98L135.59 28.52Q135.87 28.61 136.14 28.63Q136.41 28.66 136.69 28.66L136.69 28.66Q137.37 28.66 138.00 28.47Q138.63 28.28 139.19 27.93Q139.75 27.58 140.18 27.08Q140.62 26.57 140.89 25.96L140.89 25.96L144.31 29.39Q143.66 30.32 142.81 31.05Q141.97 31.79 140.98 32.30Q140.00 32.81 138.92 33.08Q137.83 33.34 136.69 33.34L136.69 33.34Q134.75 33.34 133.05 32.62Q131.35 31.91 130.08 30.62Q128.81 29.34 128.07 27.57Q127.34 25.81 127.34 23.69L127.34 23.69Q127.34 21.52 128.07 19.72Q128.81 17.93 130.08 16.66Q131.35 15.40 133.05 14.70Q134.75 14.00 136.69 14.00L136.69 14.00Q137.83 14.00 138.92 14.27Q140.02 14.54 141.00 15.06Q141.98 15.57 142.84 16.31Q143.69 17.06 144.34 17.98L144.34 17.98ZM132.55 26.11L137.98 18.90Q137.66 18.78 137.34 18.75Q137.03 18.71 136.69 18.71L136.69 18.71Q135.73 18.71 134.88 19.06Q134.04 19.41 133.41 20.06Q132.79 20.71 132.43 21.63Q132.07 22.54 132.07 23.69L132.07 23.69Q132.07 23.94 132.10 24.27Q132.12 24.59 132.18 24.93Q132.24 25.26 132.33 25.57Q132.41 25.87 132.55 26.11L132.55 26.11Z"/></g>
            
          </svg>
        